<svg viewBox="0 0 24 24" fill="#e26a6a"  xmlns="http://www.w3.org/2000/svg"><path d="m0 0h24v24h-24z" opacity="0"/><g fill=""><path d="m12.71 11.29a1 1 0 0 0 -1.4 0l-3 2.9a1 1 0 1 0 1.38 1.44l1.31-1.27v5.64a1 1 0 0 0 2 0v-5.59l1.29 1.3a1 1 0 0 0 1.42 0 1 1 0 0 0 0-1.42z"/><path d="m17.67 7a6 6 0 0 0 -11.34 0 5 5 0 0 0 -3.08 8.27 1 1 0 1 0 1.5-1.27 3 3 0 0 1 2.25-5h.1a1 1 0 0 0 1-.8 4 4 0 0 1 7.84 0 1 1 0 0 0 1 .8h.06a3 3 0 0 1 2.25 5 1 1 0 0 0 .09 1.42 1 1 0 0 0 .66.25 1 1 0 0 0 .75-.34 5 5 0 0 0 -3.08-8.33z"/></g></svg>