<svg height="64" viewBox="0 0 64 64" width="64" xmlns="http://www.w3.org/2000/svg"><g fill="none" fill-rule="evenodd"><path d="m28 55.779h8v5h-8z" fill="#595959"/><path d="m31.9804928 16.620603s-2.9182879-7.82290274 7.3264523-13.620603" stroke="#bd7575" stroke-linecap="round" stroke-width="2"/><path d="m21.8952051 62.0138375c2.6526141 0 9.8126954-1.8841817 11.7183372-5.0563118 4.839315-8.0555205 2.3864577-23.442125 2.3864577-30.1783516 0-9.3888408-7.6111593-17.00000005-17-17.00000005-9.38884075 0-17 7.61115925-17 17.00000005 0 9.3888407 10.5063644 35.2346634 19.8952051 35.2346634z" fill="#e43535"/><path d="m32 58.9090513c2.9279169 1.9779377 7.6750173 3.1047862 9.7263941 3.1047862 9.3888408 0 19.8952052-25.8458227 19.8952052-35.2346634 0-9.3888408-7.6111593-17.00000005-17-17.00000005-5.0081163 0-9.5104327 2.16558725-12.6215993 5.61141195z" fill="#ffdd95"/><path d="m20.5 14.7791741c-7.4558441 0-13.5 6.0441558-13.5 13.5" stroke="#ff78c7" stroke-linecap="round" stroke-width="2"/><g fill="#bd7575"><path d="m36.8890873 35.3890873c1.1045695 0 2-2.5670034 2-4.5s-.8954305-2.5-2-2.5-2 .5670034-2 2.5.8954305 4.5 2 4.5z" transform="matrix(.70710678 .70710678 -.70710678 .70710678 33.354466 -16.744804)"/><path d="m36.0273043 40.8366622c.8870199 0 1.6060916-2.0614212 1.6060916-3.613706 0-1.5522847-.7190717-2.0076144-1.6060916-2.0076144-.8870198 0-1.6060915.4553297-1.6060915 2.0076144 0 1.5522848.7190717 3.613706 1.6060915 3.613706z" transform="matrix(-.15643447 .98768834 -.98768834 -.15643447 79.220701 8.391129)"/></g></g></svg>