<svg viewBox="0 0 400 300" xmlns="http://www.w3.org/2000/svg"><path d="m169.24 181.92-19.69 15.44-10.8-23.65s-3.14-15.09-6.31-18.71c-3.42-3.91-11.43-5.24-16.28-5.69-5.32-.48-7.81 2.69-9.64 7.31-1 2.44-4.12 6.89-1.22 9a3.17 3.17 0 0 0 3.1.21 4.38 4.38 0 0 0 2.12-2.36c.67-1.67.59-3.8 2-4.9a3.53 3.53 0 0 1 3.37-.31c2.86 1.09 5.62 4.15 3.68 7.29-1 1.69-3.11 2.38-5 2.74s-4 .53-5.65 1.62a2.68 2.68 0 0 0 -1.36 2.06c0 1.09 1 1.89 2 2.35 2.89 1.34 6.35.88 9.43.63.35 0 5-.32 5-.4s.62 41.41 15.72 55.84c8.25 7.9 45.15-34.33 45.15-34.33z" fill="#ffc9b0"/><path d="m142.36 232.34a4.73 4.73 0 0 1 -3.39-1.26c-6.42-6.14-11.07-17.55-13.82-33.9a172.2 172.2 0 0 1 -2.15-21.55c-.71.06-1.75.13-3.29.23l-1.47.11c-2.93.26-6.24.55-9.11-.78-1.64-.76-2.58-1.95-2.58-3.26a3.6 3.6 0 0 1 1.81-2.89 12.58 12.58 0 0 1 5-1.61l1-.16c2.26-.42 3.7-1.17 4.38-2.28a3 3 0 0 0 .34-2.58 6.05 6.05 0 0 0 -3.53-3.26 2.53 2.53 0 0 0 -2.39.17 4.44 4.44 0 0 0 -1.16 2.59 11.89 11.89 0 0 1 -.54 1.89 5.35 5.35 0 0 1 -2.63 2.89 4.18 4.18 0 0 1 -4.1-.29c-3-2.16-1.12-6 .14-8.59.29-.57.56-1.12.73-1.56 1.69-4.25 4.27-8.51 10.67-7.93 5.79.53 13.43 2 16.94 6 3.19 3.65 6.19 17.56 6.51 19.06l10.22 22.39 18.69-14.66a1 1 0 0 1 1.29.05l15.57 14.1a1 1 0 0 1 .08 1.4c-1.25 1.44-30.81 35.11-42.89 35.65zm-17.42-57.85c0 .41.79 41.16 15.41 55.14a2.78 2.78 0 0 0 2.23.7c10.31-.46 36.37-29.22 40.83-34.23l-14.22-12.88-19 14.93a1 1 0 0 1 -.85.18 1 1 0 0 1 -.67-.56l-10.8-23.64a1.42 1.42 0 0 1 -.07-.22c-.86-4.12-3.62-15.45-6.08-18.26-3.24-3.69-11.17-4.93-15.62-5.34-4.15-.38-6.56 1.49-8.62 6.68-.2.51-.49 1.09-.79 1.71-1.37 2.77-2.3 5-.78 6.07a2.19 2.19 0 0 0 2.1.11 3.35 3.35 0 0 0 1.61-1.82 12.67 12.67 0 0 0 .46-1.6 6.06 6.06 0 0 1 1.87-3.72 4.5 4.5 0 0 1 4.33-.46 8 8 0 0 1 4.71 4.49 4.89 4.89 0 0 1 -.53 4.27c-1 1.62-2.87 2.67-5.72 3.19l-1 .18a10.8 10.8 0 0 0 -4.27 1.3 1.71 1.71 0 0 0 -.91 1.22c0 .58.73 1.12 1.42 1.44 2.39 1.11 5.29.86 8.09.61l.84-.07h.68c.9-.06 3.55-.23 4.09-.31h.19a1 1 0 0 1 1.09.8 1.1 1.1 0 0 1 0 .18z" fill="#093f68"/><path d="m175.34 171.85-27.03 22.64 13.6 31.6 12.38-12.68z" fill="#68e1fd"/><path d="m161.91 227.09h-.18a1 1 0 0 1 -.74-.59l-13.6-31.61a1 1 0 0 1 .28-1.16l27-22.64a1 1 0 0 1 1.65.79l-1.05 41.57a1 1 0 0 1 -.28.67l-12.38 12.68a1 1 0 0 1 -.7.29zm-12.39-32.32 12.72 29.56 11.06-11.33 1-39z" fill="#093f68"/><path d="m233.67 171.85 30.61 29.29-17.19 24.95-12.38-12.68z" fill="#68e1fd"/><path d="m247.09 227.09a.94.94 0 0 1 -.71-.3l-12.38-12.68a1 1 0 0 1 -.29-.67l-1-41.57a1 1 0 0 1 1.69-.74l30.6 29.29a1 1 0 0 1 .14 1.29l-17.2 24.95a1 1 0 0 1 -.73.43zm-11.39-14.09 11.3 11.53 16-23.25-28.25-27z" fill="#093f68"/><path d="m181.92 169.35h44.21a10 10 0 0 1 10 10v63a0 0 0 0 1 0 0h-64.18a0 0 0 0 1 0 0v-63a10 10 0 0 1 9.97-10z" fill="#68e1fd"/><path d="m236.11 243.32h-64.11a1 1 0 0 1 -1-1v-63a11 11 0 0 1 11-11h44.21a11 11 0 0 1 11 11v63a1 1 0 0 1 -1.1 1zm-63.16-2h62.16v-62a9 9 0 0 0 -9-9h-44.19a9 9 0 0 0 -9 9z" fill="#093f68"/><path d="m174.78 179.73s-6.13 5.21-6.13 15.23a26.86 26.86 0 0 0 6.13 16.76" fill="#68e1fd"/><path d="m174.78 212.72a1 1 0 0 1 -.74-.32 27.69 27.69 0 0 1 -6.39-17.4c0-10.37 6.22-15.77 6.48-16a1 1 0 1 1 1.3 1.52 19.9 19.9 0 0 0 -5.78 14.48 26.08 26.08 0 0 0 5.87 16.09 1 1 0 0 1 -.07 1.41 1 1 0 0 1 -.67.22z" fill="#093f68"/><path d="m232.62 179.73s6.13 5.21 6.13 15.23a26.86 26.86 0 0 1 -6.13 16.76" fill="#68e1fd"/><path d="m232.62 212.72a1 1 0 0 1 -.67-.26 1 1 0 0 1 -.07-1.41 26.08 26.08 0 0 0 5.87-16.05 19.9 19.9 0 0 0 -5.75-14.51 1 1 0 0 1 1.3-1.52c.26.22 6.48 5.62 6.48 16a27.69 27.69 0 0 1 -6.39 17.44 1 1 0 0 1 -.77.31z" fill="#093f68"/><path d="m221.53 169.35-6.57 23.35-10.93 38.82-10.92-38.82-6.58-23.35z" fill="#ffc9b0"/><path d="m204 232.52a1 1 0 0 1 -1-.73l-17.5-62.17a1 1 0 0 1 1-1.27h35a1 1 0 0 1 .8.4 1 1 0 0 1 .16.87l-17.46 62.17a1 1 0 0 1 -1 .73zm-16.18-62.17 16.18 57.48 16.18-57.48z" fill="#093f68"/><path d="m159.19 104.36c0-16.86 5.06-32.35 20.87-35.19 5.78-10.57 20.64-13.17 30.29-10.57 23.76 6.32 37.86 21.47 37.86 45.76s39.47 57.49-44.51 57.49-44.51-33.19-44.51-57.49z" fill="#725858"/><path d="m203.7 162.85c-29.53 0-46.09-4-52.1-12.62-5.3-7.58-1.63-17.62 1.92-27.33 2.29-6.27 4.67-12.75 4.67-18.54 0-26.26 11.43-34.15 21.23-36.09 3.54-6.13 9.57-9 14.05-10.27a33 33 0 0 1 17.14-.36c25.25 6.71 38.6 22.87 38.6 46.72 0 5.79 2.38 12.27 4.67 18.54 3.55 9.71 7.22 19.75 1.92 27.33-6.01 8.61-22.57 12.62-52.1 12.62zm-.82-104.18c-8.59 0-17.88 3.54-21.94 11a1 1 0 0 1 -.7.5c-16.58 3-20.05 20.25-20.05 34.21 0 6.14-2.44 12.79-4.79 19.22-3.53 9.66-6.87 18.78-2.16 25.51 5.53 7.91 22 11.76 50.46 11.76s44.93-3.85 50.46-11.76c4.71-6.73 1.37-15.85-2.16-25.51-2.35-6.43-4.79-13.08-4.79-19.22 0-22.85-12.83-38.34-37.12-44.79a28.09 28.09 0 0 0 -7.21-.92z" fill="#093f68"/><path d="m197.68 171.85v-7.31h12.7v7.31" fill="#ffc9b0"/><path d="m210.38 172.85a1 1 0 0 1 -1-1v-6.31h-10.71v6.31a1 1 0 0 1 -2 0v-7.31a1 1 0 0 1 1-1h12.71a1 1 0 0 1 1 1v7.31a1 1 0 0 1 -1 1z" fill="#093f68"/><ellipse cx="167.71" cy="131.53" fill="#ffc9b0" rx="12.35" ry="10.64"/><path d="m167.71 143.17c-7.36 0-13.34-5.22-13.34-11.64s6-11.64 13.34-11.64 13.35 5.22 13.35 11.64-5.99 11.64-13.35 11.64zm0-21.28c-6.25 0-11.34 4.32-11.34 9.64s5.09 9.64 11.34 9.64 11.35-4.33 11.35-9.64-5.06-9.64-11.35-9.64z" fill="#093f68"/><ellipse cx="239.69" cy="131.53" fill="#ffc9b0" rx="12.35" ry="10.64"/><path d="m239.69 143.17c-7.36 0-13.35-5.22-13.35-11.64s6-11.64 13.35-11.64 13.31 5.22 13.31 11.64-6 11.64-13.31 11.64zm0-21.28c-6.26 0-11.35 4.32-11.35 9.64s5.09 9.64 11.35 9.64 11.31-4.33 11.31-9.64-5.06-9.64-11.31-9.64z" fill="#093f68"/><path d="m241.26 102.46v26.54a37.23 37.23 0 1 1 -74.46 0c0-6.1.15-27.27.15-27.27l11.2.12 5.19-18.26s3.74 12.76 5 18.36l8.68.09c1.84-3.79 4.86-9.21 5-9.59s2.32 5.62 3.75 9.68l13.06.14c2.38-5.51 6.63-15.67 6.63-15.67l6.79 15.8z" fill="#ffc9b0"/><g fill="#093f68"><path d="m204 167.21a38.28 38.28 0 0 1 -38.2-38.21c0-6 .15-27.06.15-27.27a1 1 0 0 1 .3-.71.93.93 0 0 1 .71-.29l10.44.11 5-17.52a1 1 0 0 1 1-.73 1 1 0 0 1 1 .72c0 .12 3.45 11.76 4.86 17.65l7.27.08c1.11-2.25 2.55-4.93 3.52-6.76.56-1 1.08-2 1.16-2.19a1.08 1.08 0 0 1 1-.66c.86 0 1 .07 4.42 9.71l11.7.12c2.39-5.55 6.32-14.94 6.36-15a1 1 0 0 1 .91-.62 1 1 0 0 1 .92.61l6.53 15.19 8.34.09a1 1 0 0 1 1 1v26.47a38.28 38.28 0 0 1 -38.39 38.21zm-36.08-64.5c0 4.28-.14 21-.14 26.26a36.23 36.23 0 1 0 72.46 0v-25.52l-8-.08a1 1 0 0 1 -.9-.61l-5.86-13.63c-1.38 3.3-4 9.6-5.72 13.5a1 1 0 0 1 -.92.61l-13.06-.14a1 1 0 0 1 -.93-.67c-1.46-4.14-2.33-6.47-2.85-7.77-.08.17-.18.34-.28.54-1.06 2-2.65 4.93-3.76 7.25a1 1 0 0 1 -.92.56l-8.68-.09a1 1 0 0 1 -1-.78c-.86-3.74-2.85-10.78-4.05-15l-4.24 14.9a1 1 0 0 1 -1 .73z"/><circle cx="188.95" cy="124.01" r="3.35"/><circle cx="219.11" cy="124.01" r="3.35"/><path d="m203.86 136.85a20.72 20.72 0 0 1 -3.34-.28 1 1 0 0 1 .35-2 16 16 0 0 0 5.17.05c.27-.93-1-4.67-2.89-8.22a1 1 0 0 1 .42-1.35 1 1 0 0 1 1.35.43c.94 1.79 3.91 7.81 2.91 10a1.78 1.78 0 0 1 -1.2 1 11.64 11.64 0 0 1 -2.77.37z"/><path d="m191.44 131.91h-6.29a10.27 10.27 0 0 1 -10.25-10.26v-1.79a3.73 3.73 0 0 1 3.74-3.74h19.36a3.74 3.74 0 0 1 3.74 3.74v1.79a10.27 10.27 0 0 1 -10.3 10.26zm-12.8-13.79a1.74 1.74 0 0 0 -1.74 1.74v1.79a8.26 8.26 0 0 0 8.25 8.26h6.29a8.27 8.27 0 0 0 8.26-8.26v-1.79a1.74 1.74 0 0 0 -1.74-1.74z"/><path d="m222.6 131.91h-6.29a10.27 10.27 0 0 1 -10.26-10.26v-1.79a3.74 3.74 0 0 1 3.74-3.74h19.32a3.74 3.74 0 0 1 3.74 3.74v1.79a10.27 10.27 0 0 1 -10.25 10.26zm-12.81-13.79a1.74 1.74 0 0 0 -1.74 1.74v1.79a8.26 8.26 0 0 0 8.26 8.26h6.29a8.26 8.26 0 0 0 8.25-8.26v-1.79a1.74 1.74 0 0 0 -1.74-1.74z"/><path d="m175.9 122.65h-9.9a1 1 0 0 1 0-2h9.89a1 1 0 0 1 0 2z"/><path d="m241.26 122.65h-9.1a1 1 0 0 1 0-2h9.1a1 1 0 0 1 0 2z"/><path d="m207.05 122.65h-6.35a1 1 0 0 1 0-2h6.35a1 1 0 0 1 0 2z"/><path d="m214.96 192.7-10.93 38.82-10.92-38.82z"/><path d="m204 232.52a1 1 0 0 1 -1-.73l-10.86-38.79a1 1 0 0 1 1-1.27h21.86a1 1 0 0 1 .8.4 1 1 0 0 1 .16.87l-10.96 38.79a1 1 0 0 1 -1 .73zm-9.6-38.82 9.6 34.13 9.61-34.13z"/><path d="m203.72 232.52a1 1 0 0 1 -.76-.34l-21.59-25.18a1 1 0 0 1 -.15-1.07l5.44-11.59-9-4.4a1 1 0 0 1 -.48-1.28l8.11-19.66a1 1 0 0 1 1.31-.55 1 1 0 0 1 .54 1.31l-7.76 18.85 9 4.42a1 1 0 0 1 .47 1.32l-5.58 11.89 21.17 24.66a1 1 0 0 1 -.11 1.41 1 1 0 0 1 -.61.21z"/><path d="m204.35 232.52a.94.94 0 0 1 -.65-.24 1 1 0 0 1 -.11-1.41l21.17-24.66-5.58-11.89a1 1 0 0 1 .47-1.32l9-4.42-7.76-18.85a1 1 0 1 1 1.85-.76l8.12 19.71a1 1 0 0 1 -.49 1.28l-9 4.4 5.47 11.64a1 1 0 0 1 -.14 1.07l-21.59 25.16a1 1 0 0 1 -.76.29z"/></g><path d="m266.95 178.88h6.79v14.37h-6.79z" fill="#ffbc0e"/><path d="m273.74 194.25h-6.74a1 1 0 0 1 -1-1v-14.37a1 1 0 0 1 1-1h6.79a1 1 0 0 1 1 1v14.37a1 1 0 0 1 -1.05 1zm-5.79-2h4.79v-12.37h-4.74z" fill="#093f68"/><path d="m265.49 175.3h9.7v3.58h-9.7z" fill="#ffbc0e"/><path d="m275.2 179.88h-9.71a1 1 0 0 1 -1-1v-3.58a1 1 0 0 1 1-1h9.71a1 1 0 0 1 1 1v3.58a1 1 0 0 1 -1 1zm-8.71-2h7.71v-1.58h-7.71z" fill="#093f68"/><path d="m225.84 196.04 25.13-15.4 25.14 15.4v34.31h-50.27z" fill="#ffbc0e"/><path d="m276.1 231.35h-50.26a1 1 0 0 1 -1-1v-34.35a1 1 0 0 1 .47-.85l25.14-15.4a1 1 0 0 1 1 0l25.14 15.4a1 1 0 0 1 .47.85v34.31a1 1 0 0 1 -.96 1.04zm-49.26-2h48.26v-32.75l-24.1-14.78-24.16 14.78z" fill="#093f68"/><path d="m280.09 201.78a5.2 5.2 0 0 1 -2.82-.82l-26.27-17.16-26.33 17.2a5.17 5.17 0 0 1 -6.67-1 4 4 0 0 1 1.05-6l29.12-19a5.23 5.23 0 0 1 5.64 0l29.12 19a4 4 0 0 1 1 6 5 5 0 0 1 -3.84 1.78z" fill="#f56132"/><path d="m280.09 202.78a6.18 6.18 0 0 1 -3.37-1l-25.72-16.78-25.75 16.8a6.2 6.2 0 0 1 -8-1.15 4.93 4.93 0 0 1 -1.08-3.9 5.17 5.17 0 0 1 2.36-3.56l29.12-19a6.27 6.27 0 0 1 6.74 0l29.12 19a5.17 5.17 0 0 1 2.36 3.56 4.89 4.89 0 0 1 -1.08 3.9 6 6 0 0 1 -4.7 2.13zm-29.09-27.57a4.18 4.18 0 0 0 -2.28.66l-29.12 19a3.26 3.26 0 0 0 -1.48 2.19 3 3 0 0 0 .66 2.34 4.17 4.17 0 0 0 5.38.73l26.26-17.13a1 1 0 0 1 1.1 0l26.29 17.15a4.19 4.19 0 0 0 2.28.66 4 4 0 0 0 3.1-1.39 3 3 0 0 0 .66-2.34 3.26 3.26 0 0 0 -1.48-2.19l-29.12-19a4.18 4.18 0 0 0 -2.25-.68z" fill="#093f68"/><path d="m242.92 200.47h16.32v29.89h-16.32z" fill="#ffbc0e"/><path d="m259.24 231.35h-16.32a1 1 0 0 1 -1-1v-29.88a1 1 0 0 1 1-1h16.32a1 1 0 0 1 1 1v29.88a1 1 0 0 1 -1 1zm-15.32-2h14.32v-27.88h-14.32z" fill="#093f68"/><path d="m230.19 207.51h8.3v10.57h-8.3z" fill="#ffbc0e"/><path d="m238.49 219.08h-8.3a1 1 0 0 1 -1-1v-10.57a1 1 0 0 1 1-1h8.3a1 1 0 0 1 1 1v10.57a1 1 0 0 1 -1 1zm-7.3-2h6.3v-8.57h-6.3z" fill="#093f68"/><path d="m263.45 207.51h8.3v10.57h-8.3z" fill="#ffbc0e"/><path d="m271.75 219.08h-8.3a1 1 0 0 1 -1-1v-10.57a1 1 0 0 1 1-1h8.3a1 1 0 0 1 1 1v10.57a1 1 0 0 1 -1 1zm-7.3-2h6.3v-8.57h-6.3z" fill="#093f68"/><path d="m109.91 219.08s3.44-1.9 3.66-2.09z" fill="#70cc40"/><path d="m109.91 220.08a1 1 0 0 1 -.87-.51 1 1 0 0 1 .37-1.36l3.66-2.09a1 1 0 0 1 1.16 1.62 37.1 37.1 0 0 1 -3.83 2.26 1.07 1.07 0 0 1 -.49.08z" fill="#093f68"/><path d="m116.18 195.64c3.73-1.6 5.83-5 5.83-9.61a10.45 10.45 0 1 0 -20.89.05c0 4.34 3.2 8.06 7 9.62v22.3a1.22 1.22 0 0 0 1.81 1.07l6.94-4v-5.4l-1.91.77-.1-12.05 1.34-1.09zm-4.61-11.64a3.23 3.23 0 1 1 3.22-3.23 3.23 3.23 0 0 1 -3.22 3.23z" fill="#70cc40"/><path d="m109.32 220.23a2.19 2.19 0 0 1 -1.13-.31 2.22 2.22 0 0 1 -1.09-1.92v-21.65c-3.55-1.7-7-5.42-7-10.27a11.56 11.56 0 0 1 10.82-11.48 11.44 11.44 0 0 1 12.08 11.4c0 4.76-2.06 8.38-5.83 10.25v1.05a1 1 0 0 1 -.37.77l-1 .79.08 10.1.55-.22a1 1 0 0 1 1.37.93v5.4a1 1 0 0 1 -.5.87l-6.94 4a2.27 2.27 0 0 1 -1.04.29zm1.68-43.63a9.55 9.55 0 0 0 -8.83 9.47c0 3.59 2.63 7.17 6.36 8.71a1 1 0 0 1 .62.92v22.3a.22.22 0 0 0 .11.2.21.21 0 0 0 .22 0l6.42-3.67v-3.35l-.54.21a1 1 0 0 1 -.93-.09 1 1 0 0 1 -.44-.83l-.1-12.05a1 1 0 0 1 .37-.78l1-.79v-1.21a1 1 0 0 1 .61-.92c3.37-1.44 5.22-4.53 5.22-8.69a9.45 9.45 0 0 0 -8.83-9.43 4.22 4.22 0 1 1 -1.23 0zm.62 1.96a2.23 2.23 0 1 0 2.22 2.22 2.23 2.23 0 0 0 -2.27-2.22z" fill="#093f68"/><path d="m112.45 182.48a7.38 7.38 0 1 1 6.93-4.87 1 1 0 0 1 -1.28.6 1 1 0 0 1 -.6-1.28 5.32 5.32 0 0 0 .32-1.82 5.38 5.38 0 1 0 -4 5.2 1 1 0 0 1 .5 1.94 7.52 7.52 0 0 1 -1.87.23z" fill="#093f68"/><path d="m267.6 235.39s2.26-3.58-.33-6.33c-3-3.17-9-9.36-13.53-7-2.79 1.44 4.07 8.28 4.07 8.28s-21.48-.26-26.31 0 8.92 11 16.75 11.59c6.93.51 15.66-.93 19.35-6.54z" fill="#ffc9b0"/><path d="m250.78 243c-.89 0-1.76 0-2.6-.09-5.82-.42-18.73-8.08-18.7-11.9 0-.76.53-1.61 2-1.69 3.91-.21 18.34-.08 24.05 0-1.6-1.86-3.68-4.67-3.39-6.53a2.17 2.17 0 0 1 1.18-1.62c5.34-2.76 11.67 4 14.72 7.2 2.47 2.62 1.37 6.08.45 7.54-3.49 5.29-11.04 7.09-17.71 7.09zm-19.2-11.68c1.08 2.21 10.48 9.15 16.74 9.6 6.64.48 15-.88 18.44-6.1.13-.21 1.76-3-.22-5.1-2.5-2.65-8.35-8.86-12.35-6.79-.1 0-.1.08-.11.14-.18 1.13 2.17 4.28 4.44 6.55a1 1 0 0 1 -.71 1.7c-.23.03-21.43-.22-26.23.03z" fill="#093f68"/><path d="m196.28 113.16h-.28l-16.26-2a2 2 0 1 1 .5-4l16.26 2a2 2 0 0 1 -.25 4z" fill="#093f68"/><path d="m211.78 113.16a2 2 0 0 1 -.25-4l16.26-2a2 2 0 1 1 .49 4l-16.25 2z" fill="#093f68"/><path d="m204.44 150.26a16.39 16.39 0 0 1 -13.65-7.6 1 1 0 0 1 1.75-1c.24.43 6.21 10.6 19.66 4.81a1 1 0 1 1 .79 1.84 21.63 21.63 0 0 1 -8.55 1.95z" fill="#093f68"/></svg>